<svg width="18" height="19" viewBox="0 0 18 19" fill="none" xmlns="http://www.w3.org/2000/svg">
<g clip-path="url(#clip0_69_23712)">
<path d="M5.14307 5.18862V3.34062C5.14316 3.04227 5.25329 2.75617 5.44922 2.54524C5.64515 2.33431 5.91085 2.21582 6.18789 2.21582H15.2411C15.5182 2.21582 15.784 2.33437 15.9799 2.54538C16.1758 2.7564 16.2859 3.0426 16.2859 3.34102V13.091C16.2858 13.3893 16.1758 13.6753 15.9799 13.8863C15.784 14.0972 15.5184 14.2157 15.2415 14.2158H13.5062" stroke="#EFEFEF" stroke-width="0.952381" stroke-linecap="round" stroke-linejoin="round"/>
<path d="M13.2862 3.93164H2.14245C1.80156 3.9319 1.47471 4.07596 1.23374 4.33217C0.992779 4.58837 0.857422 4.93575 0.857422 5.29795V17.1368C0.857422 17.4991 0.992905 17.8467 1.23407 18.1029C1.47523 18.3591 1.80231 18.5031 2.14336 18.5031H13.2862C13.6271 18.5029 13.954 18.359 14.1951 18.1029C14.4361 17.8468 14.5716 17.4994 14.5717 17.1372V5.29698C14.5715 4.93487 14.4359 4.58766 14.1949 4.33165C13.9539 4.07564 13.627 3.93177 13.2862 3.93164Z" fill="#EFEFEF"/>
</g>
<defs>
<clipPath id="clip0_69_23712">
<rect width="18" height="18" fill="white" transform="translate(0 0.5)"/>
</clipPath>
</defs>
</svg>
