<svg width="18" height="18" viewBox="0 0 18 18" fill="none" xmlns="http://www.w3.org/2000/svg">
<path d="M9.56475 1.5C10.4333 1.5 11.148 2.15625 11.2403 3H12.5625C12.9901 2.99995 13.4018 3.16222 13.7143 3.45403C14.0269 3.74583 14.217 4.14541 14.2463 4.572L14.25 4.6875C14.2498 4.82319 14.2006 4.95424 14.1115 5.05651C14.0223 5.15878 13.8992 5.22537 13.7648 5.244L13.6868 5.25C13.5511 5.24984 13.42 5.20064 13.3177 5.11146C13.2155 5.02229 13.1489 4.89915 13.1302 4.76475L13.125 4.6875C13.125 4.55157 13.0758 4.42024 12.9864 4.3178C12.8971 4.21536 12.7737 4.14874 12.639 4.13025L12.5625 4.125H10.9635C10.8094 4.35444 10.6012 4.54241 10.3573 4.6723C10.1133 4.80219 9.84113 4.87 9.56475 4.86975H6.93525C6.65894 4.87009 6.3868 4.80239 6.14285 4.67263C5.89891 4.54288 5.69066 4.35505 5.5365 4.12575L3.9375 4.125C3.80157 4.12501 3.67024 4.17423 3.5678 4.26358C3.46536 4.35292 3.39874 4.47633 3.38025 4.611L3.375 4.6875V14.8162C3.375 15.1012 3.5865 15.336 3.861 15.3735L3.9375 15.3787H6.1875C6.32332 15.3787 6.45455 15.4279 6.55698 15.517C6.6594 15.6062 6.7261 15.7295 6.74475 15.864L6.75 15.9405C6.75 16.0897 6.69074 16.2328 6.58525 16.3382C6.47976 16.4437 6.33668 16.503 6.1875 16.503H3.9375C3.51003 16.5031 3.09846 16.3409 2.78593 16.0492C2.4734 15.7576 2.2832 15.3582 2.25375 14.9318L2.25 14.8162V4.6875C2.24995 4.25991 2.41222 3.84823 2.70403 3.53569C2.99583 3.22314 3.39541 3.03302 3.822 3.00375L3.9375 3H5.25975C5.30536 2.58755 5.50154 2.20644 5.81071 1.92966C6.11988 1.65287 6.52029 1.49989 6.93525 1.5H9.56475ZM14.0625 6C14.4901 5.99995 14.9018 6.16222 15.2143 6.45403C15.5269 6.74583 15.717 7.14541 15.7463 7.572L15.75 7.6875V14.8125C15.7501 15.2401 15.5878 15.6518 15.296 15.9643C15.0042 16.2769 14.6046 16.467 14.178 16.4963L14.0625 16.5H9.1875C8.7599 16.5001 8.34823 16.3378 8.03569 16.046C7.72314 15.7542 7.53302 15.3546 7.50375 14.928L7.5 14.8125V7.6875C7.49995 7.2599 7.66222 6.84823 7.95403 6.53569C8.24583 6.22314 8.64541 6.03302 9.072 6.00375L9.1875 6H14.0625ZM9.56475 2.625H6.93525C6.79031 2.63031 6.65307 2.69161 6.55241 2.79603C6.45174 2.90045 6.39549 3.03984 6.39549 3.18488C6.39549 3.32991 6.45174 3.4693 6.55241 3.57372C6.65307 3.67814 6.79031 3.73944 6.93525 3.74475H9.56475C9.64 3.7475 9.71503 3.73506 9.78536 3.70817C9.85569 3.68127 9.91988 3.64047 9.97409 3.58821C10.0283 3.53595 10.0714 3.4733 10.1009 3.404C10.1303 3.3347 10.1455 3.26017 10.1455 3.18488C10.1455 3.10958 10.1303 3.03505 10.1009 2.96575C10.0714 2.89645 10.0283 2.8338 9.97409 2.78154C9.91988 2.72928 9.85569 2.68848 9.78536 2.66158C9.71503 2.63469 9.64 2.62225 9.56475 2.625Z" fill="white"/>
</svg>
