<svg width="16" height="17" viewBox="0 0 16 17" fill="none" xmlns="http://www.w3.org/2000/svg">
<path fill-rule="evenodd" clip-rule="evenodd" d="M15.5 6.5H0.5V13C0.5 13.663 0.7635 14.299 1.232 14.768C1.701 15.2365 2.337 15.5 3 15.5C5.661 15.5 10.339 15.5 13 15.5C13.663 15.5 14.299 15.2365 14.768 14.768C15.2365 14.299 15.5 13.663 15.5 13V6.5ZM4 13H5C5.276 13 5.5 12.776 5.5 12.5C5.5 12.224 5.276 12 5 12H4C3.724 12 3.5 12.224 3.5 12.5C3.5 12.776 3.724 13 4 13ZM7.5 13H8.5C8.776 13 9 12.776 9 12.5C9 12.224 8.776 12 8.5 12H7.5C7.224 12 7 12.224 7 12.5C7 12.776 7.224 13 7.5 13ZM11 13H12C12.276 13 12.5 12.776 12.5 12.5C12.5 12.224 12.276 12 12 12H11C10.724 12 10.5 12.224 10.5 12.5C10.5 12.776 10.724 13 11 13ZM4 10H5C5.276 10 5.5 9.776 5.5 9.5C5.5 9.224 5.276 9 5 9H4C3.724 9 3.5 9.224 3.5 9.5C3.5 9.776 3.724 10 4 10ZM7.5 10H8.5C8.776 10 9 9.776 9 9.5C9 9.224 8.776 9 8.5 9H7.5C7.224 9 7 9.224 7 9.5C7 9.776 7.224 10 7.5 10ZM11 10H12C12.276 10 12.5 9.776 12.5 9.5C12.5 9.224 12.276 9 12 9H11C10.724 9 10.5 9.224 10.5 9.5C10.5 9.776 10.724 10 11 10ZM0.5 5.5H15.5V5C15.5 4.337 15.2365 3.701 14.768 3.232C14.299 2.7635 13.663 2.5 13 2.5H11.5V2C11.5 1.724 11.276 1.5 11 1.5C10.724 1.5 10.5 1.724 10.5 2V2.5H5.5V2C5.5 1.724 5.276 1.5 5 1.5C4.724 1.5 4.5 1.724 4.5 2V2.5H3C2.337 2.5 1.701 2.7635 1.232 3.232C0.7635 3.701 0.5 4.337 0.5 5V5.5Z" fill="#CCCCCC"/>
</svg>
