<svg width="29" height="27" viewBox="0 0 29 27" fill="none" xmlns="http://www.w3.org/2000/svg">
<rect x="0.733398" width="27.6" height="27" rx="13.5" fill="#171B35"/>
<g clip-path="url(#clip0_16_1399)">
<path d="M10.994 16.1177C10.9557 16.0832 10.9106 16.0563 10.8614 16.0384C10.8121 16.0205 10.7597 16.012 10.707 16.0135C10.6543 16.0149 10.6024 16.0262 10.5543 16.0467C10.5062 16.0672 10.4628 16.0965 10.4266 16.133C10.3903 16.1695 10.362 16.2124 10.3433 16.2593C10.3245 16.3062 10.3156 16.3561 10.3171 16.4063C10.3185 16.4565 10.3304 16.5059 10.3519 16.5517C10.3735 16.5975 10.4043 16.6388 10.4426 16.6733L14.0545 19.921C14.129 19.988 14.2277 20.0254 14.3302 20.0254C14.4328 20.0254 14.5314 19.988 14.6059 19.921L18.2182 16.6733C18.2574 16.639 18.289 16.5977 18.3113 16.5517C18.3335 16.5058 18.3459 16.456 18.3478 16.4055C18.3497 16.3549 18.341 16.3044 18.3223 16.2571C18.3035 16.2097 18.275 16.1664 18.2385 16.1296C18.202 16.0928 18.1582 16.0632 18.1096 16.0427C18.061 16.0221 18.0086 16.011 17.9555 16.0099C17.9023 16.0088 17.8495 16.0178 17.8 16.0363C17.7505 16.0548 17.7054 16.0825 17.6672 16.1177L14.3302 19.1178L10.994 16.1177Z" fill="#EFEFEF"/>
</g>
<g clip-path="url(#clip1_16_1399)">
<path d="M10.994 10.8823C10.9557 10.9168 10.9106 10.9437 10.8614 10.9616C10.8121 10.9795 10.7597 10.988 10.707 10.9865C10.6543 10.9851 10.6024 10.9738 10.5543 10.9533C10.5062 10.9328 10.4628 10.9035 10.4266 10.867C10.3903 10.8305 10.362 10.7876 10.3433 10.7407C10.3245 10.6938 10.3156 10.6439 10.3171 10.5937C10.3185 10.5435 10.3304 10.4941 10.3519 10.4483C10.3735 10.4025 10.4043 10.3612 10.4426 10.3267L14.0545 7.07905C14.129 7.01198 14.2277 6.97461 14.3302 6.97461C14.4328 6.97461 14.5314 7.01198 14.6059 7.07905L18.2182 10.3267C18.2574 10.361 18.289 10.4023 18.3113 10.4483C18.3335 10.4942 18.3459 10.544 18.3478 10.5945C18.3497 10.6451 18.341 10.6956 18.3223 10.7429C18.3035 10.7903 18.275 10.8336 18.2385 10.8704C18.202 10.9072 18.1582 10.9368 18.1096 10.9573C18.061 10.9779 18.0086 10.989 17.9555 10.9901C17.9023 10.9912 17.8495 10.9822 17.8 10.9637C17.7505 10.9452 17.7054 10.9175 17.6672 10.8823L14.3302 7.88218L10.994 10.8823Z" fill="#EFEFEF"/>
</g>
<defs>
<clipPath id="clip0_16_1399">
<rect width="8.43273" height="8.43273" fill="white" transform="translate(10.3169 20.0005) rotate(-90)"/>
</clipPath>
<clipPath id="clip1_16_1399">
<rect width="8.43273" height="8.43273" fill="white" transform="matrix(-4.37114e-08 1 1 4.37114e-08 10.3169 6.99951)"/>
</clipPath>
</defs>
</svg>
