<svg width="17" height="18" viewBox="0 0 17 18" fill="none" xmlns="http://www.w3.org/2000/svg">
<path d="M2.61164 5.65846C2.54401 5.59456 2.46446 5.5446 2.37753 5.51144C2.2906 5.47828 2.19798 5.46257 2.10498 5.4652C2.01197 5.46783 1.9204 5.48875 1.83548 5.52677C1.75056 5.5648 1.67396 5.61917 1.61006 5.6868C1.54615 5.75442 1.49619 5.83397 1.46303 5.92091C1.42987 6.00784 1.41416 6.10045 1.41679 6.19346C1.41942 6.28646 1.44034 6.37804 1.47836 6.46296C1.51639 6.54788 1.57076 6.62448 1.63839 6.68838L8.01339 12.7092C8.1449 12.8336 8.31903 12.9028 8.50001 12.9028C8.681 12.9028 8.85512 12.8336 8.98664 12.7092L15.3623 6.68838C15.4315 6.6249 15.4873 6.54832 15.5265 6.46309C15.5658 6.37785 15.5877 6.28567 15.591 6.19189C15.5944 6.09811 15.579 6.00461 15.5459 5.9168C15.5128 5.829 15.4626 5.74865 15.3982 5.68042C15.3337 5.6122 15.2564 5.55745 15.1706 5.51937C15.0849 5.48128 14.9924 5.46062 14.8986 5.45858C14.8048 5.45653 14.7115 5.47315 14.6241 5.50747C14.5368 5.54178 14.4571 5.59311 14.3898 5.65846L8.50001 11.2203L2.61164 5.65846Z" fill="#CCCCCC"/>
</svg>
