<svg width="33" height="32" viewBox="0 0 33 32" fill="none" xmlns="http://www.w3.org/2000/svg">
<rect x="0.5" width="32" height="32" rx="16" fill="#303746"/>
<mask id="mask0_24_5816" style="mask-type:alpha" maskUnits="userSpaceOnUse" x="4" y="4" width="25" height="24">
<rect x="4.5" y="4" width="24" height="24" fill="#D9D9D9"/>
</mask>
<g mask="url(#mask0_24_5816)">
<path d="M12.9 21L16.5 17.4L20.1 21L21.5 19.6L17.9 16L21.5 12.4L20.1 11L16.5 14.6L12.9 11L11.5 12.4L15.1 16L11.5 19.6L12.9 21ZM16.5 26C15.1167 26 13.8167 25.7373 12.6 25.212C11.3833 24.6873 10.325 23.975 9.425 23.075C8.525 22.175 7.81267 21.1167 7.288 19.9C6.76267 18.6833 6.5 17.3833 6.5 16C6.5 14.6167 6.76267 13.3167 7.288 12.1C7.81267 10.8833 8.525 9.825 9.425 8.925C10.325 8.025 11.3833 7.31233 12.6 6.787C13.8167 6.26233 15.1167 6 16.5 6C17.8833 6 19.1833 6.26233 20.4 6.787C21.6167 7.31233 22.675 8.025 23.575 8.925C24.475 9.825 25.1873 10.8833 25.712 12.1C26.2373 13.3167 26.5 14.6167 26.5 16C26.5 17.3833 26.2373 18.6833 25.712 19.9C25.1873 21.1167 24.475 22.175 23.575 23.075C22.675 23.975 21.6167 24.6873 20.4 25.212C19.1833 25.7373 17.8833 26 16.5 26Z" fill="#EB5757"/>
</g>
</svg>
