<svg width="19" height="18" viewBox="0 0 19 18" fill="none" xmlns="http://www.w3.org/2000/svg">
<path d="M9.33398 1.5C5.19398 1.5 1.83398 4.86 1.83398 9C1.83398 13.14 5.19398 16.5 9.33398 16.5C13.474 16.5 16.834 13.14 16.834 9C16.834 4.86 13.474 1.5 9.33398 1.5ZM9.33398 12.75C8.92148 12.75 8.58398 12.4125 8.58398 12V9C8.58398 8.5875 8.92148 8.25 9.33398 8.25C9.74648 8.25 10.084 8.5875 10.084 9V12C10.084 12.4125 9.74648 12.75 9.33398 12.75ZM10.084 6.75H8.58398V5.25H10.084V6.75Z" fill="#CCCCCC"/>
</svg>
