<svg width="154" height="61" viewBox="0 0 154 61" fill="none" xmlns="http://www.w3.org/2000/svg">
<path d="M1 34.3009V40.6566V58.5C1 59.6046 1.89543 60.5 3 60.5H150.602C151.699 60.5 152.592 59.6156 152.602 58.5182L152.96 19.1824C152.976 17.4758 150.979 16.5404 149.678 17.6448C148.895 18.3095 147.735 18.2702 146.998 17.554L142.787 13.4566C142.448 13.127 142.003 12.9281 141.532 12.895L139.596 12.7595C139.151 12.7283 138.729 12.5491 138.397 12.2505L136.041 10.1283C135.869 9.97373 135.735 9.78184 135.649 9.5674L135.162 8.35205C134.783 7.40522 133.419 7.47911 133.144 8.46137L133.083 8.67711C132.966 9.09715 132.542 9.35395 132.116 9.26426C131.887 9.21623 131.689 9.07392 131.571 8.8724L130.751 7.47149C130.369 6.81941 129.457 6.74064 128.969 7.31757C128.548 7.81518 127.788 7.83741 127.339 7.36528L126.94 6.94579C126.616 6.60556 126.105 6.52154 125.69 6.73998C125.119 7.03969 124.416 6.75997 124.207 6.1503L122.844 2.17281C122.685 1.70804 122.327 1.33796 121.868 1.16262C120.944 0.809549 119.919 1.3402 119.673 2.29853L118.739 5.94393C118.63 6.36889 118.362 6.73603 117.991 6.96997C117.114 7.5233 115.949 7.17739 115.516 6.23453L115.222 5.59399C114.482 3.98385 112.162 4.08002 111.558 5.74588C111.465 6.00317 111.319 6.23836 111.131 6.4366L110.569 7.02616C110.391 7.21372 110.251 7.43416 110.156 7.67524L109.122 10.3127C108.912 10.8488 108.293 11.0963 107.771 10.8526C107.219 10.5947 106.567 10.888 106.393 11.4722L100.65 30.7812C100.455 31.4363 99.5325 31.4513 99.3165 30.8028C99.0877 30.1163 98.0945 30.187 97.9654 30.8991L97.8089 31.7621C97.7268 32.2152 97.1185 32.3093 96.9033 31.9023C96.7149 31.546 96.1994 31.5617 96.0331 31.9287L95.5308 33.0369C95.1032 33.9803 93.722 33.841 93.4913 32.8313L93.0649 30.9644C92.942 30.4263 92.5303 30.0011 91.9965 29.8609C91.4361 29.7137 91.0128 29.2535 90.913 28.6827L89.9935 23.4225C89.8329 22.5039 88.5039 22.535 88.3865 23.4601L88.3006 24.1373C88.2487 24.5457 87.7459 24.7108 87.4621 24.4126C87.1925 24.1294 86.716 24.2618 86.6312 24.6435L86.1754 26.6959C85.8556 28.136 83.928 28.4224 83.2033 27.1376L82.2072 25.3714C81.9495 24.9147 81.3237 24.837 80.9622 25.2168C80.5704 25.6285 79.884 25.4966 79.6726 24.9691L78.5227 22.0999C78.4004 21.7947 78.2047 21.5244 77.9531 21.3128L77.5936 21.0107C77.3474 20.8038 77.1547 20.5405 77.0319 20.2432L72.6259 9.57602C72.401 9.03164 71.6503 8.9797 71.3526 9.48793C71.0083 10.0757 70.1147 9.89156 70.0308 9.21562L69.6859 6.4379C69.4785 4.7672 67.2033 4.42975 66.5199 5.96833L64.3393 10.8776C64.2832 11.0039 64.2403 11.1356 64.2114 11.2707L60.5193 28.5112C60.346 29.3203 59.6923 29.9392 58.8749 30.068L55.7613 30.5587L54.8582 30.7485C54.0935 30.9092 53.3269 30.484 53.0583 29.7502C52.7204 28.8271 51.6279 28.4369 50.7816 28.937L48.9582 30.0147C48.8744 30.0642 48.7943 30.1198 48.7186 30.1809L46.2701 32.1598C46.0438 32.3427 45.7805 32.4739 45.4983 32.5445L42.5544 33.2809C41.7571 33.4804 40.9188 33.1717 40.4413 32.5027L40.3859 32.4251C39.5331 31.2305 37.7267 31.3308 37.0115 32.6126L35.2781 35.7194C34.9492 36.309 34.3449 36.6928 33.6713 36.74L31.8096 36.8704C31.5381 36.8894 31.2657 36.8528 31.0088 36.7629L28.8634 36.0115C28.3918 35.8464 27.87 36.0475 27.6313 36.4864C27.3651 36.9758 26.7552 37.1608 26.2621 36.9017L24.5441 35.9992C24.0035 35.7153 23.3351 35.9104 23.0323 36.4407C22.6433 37.1217 21.697 37.2117 21.1867 36.616L21.1038 36.5192C20.6322 35.9686 19.788 35.9465 19.2882 36.4716L18.8063 36.9779C18.4287 37.3747 17.8951 37.5842 17.3484 37.5504L15.1695 37.4158C14.6989 37.3867 14.278 37.1129 14.0608 36.6944L13.5826 35.7734C13.3459 35.3175 12.7134 35.2673 12.4077 35.6801C12.054 36.158 11.3024 35.9996 11.1717 35.4196L9.78185 29.2542C9.6068 28.4777 8.98794 27.8789 8.20607 27.7296L7.69053 27.6311C7.27008 27.5508 6.89745 27.3099 6.65167 26.9594C5.75264 25.6775 3.74043 26.2564 3.65998 27.82L3.51474 30.643C3.4798 31.3223 3.10198 31.9373 2.51182 32.2755L2.00557 32.5656C1.38363 32.922 1 33.584 1 34.3009Z" fill="url(#paint0_linear_24_4826)"/>
<path d="M1 40.6566V34.3009C1 33.584 1.38363 32.922 2.00557 32.5656L2.51182 32.2755C3.10198 31.9373 3.4798 31.3223 3.51474 30.643L3.65998 27.82C3.74043 26.2564 5.75264 25.6775 6.65167 26.9594V26.9594C6.89745 27.3099 7.27008 27.5508 7.69053 27.6311L8.20607 27.7296C8.98794 27.8789 9.6068 28.4777 9.78185 29.2543L11.1717 35.4196C11.3024 35.9996 12.054 36.158 12.4077 35.6801V35.6801C12.7134 35.2673 13.3459 35.3175 13.5826 35.7734L14.0608 36.6944C14.278 37.1129 14.6989 37.3867 15.1695 37.4158L17.3484 37.5504C17.8951 37.5842 18.4287 37.3747 18.8063 36.9779L19.2883 36.4716C19.788 35.9465 20.6322 35.9686 21.1038 36.5192L21.1867 36.616C21.697 37.2117 22.6433 37.1217 23.0323 36.4407V36.4407C23.3351 35.9104 24.0035 35.7153 24.5441 35.9992L26.2621 36.9017C26.7552 37.1608 27.3651 36.9759 27.6313 36.4864V36.4864C27.87 36.0475 28.3918 35.8464 28.8634 36.0115L31.0088 36.7629C31.2657 36.8528 31.5381 36.8894 31.8096 36.8704L33.6713 36.74C34.3449 36.6928 34.9492 36.309 35.2781 35.7194L37.0115 32.6126C37.7267 31.3308 39.5331 31.2305 40.3859 32.4251L40.4413 32.5027C40.9188 33.1717 41.7571 33.4804 42.5544 33.2809L45.4983 32.5445C45.7805 32.4739 46.0438 32.3427 46.2701 32.1598L48.7186 30.1809C48.7943 30.1198 48.8744 30.0642 48.9582 30.0147L50.7816 28.937C51.6279 28.4369 52.7204 28.8271 53.0583 29.7502V29.7502C53.3269 30.484 54.0935 30.9092 54.8582 30.7485L55.7613 30.5587L58.8749 30.068C59.6923 29.9392 60.346 29.3203 60.5193 28.5112L64.2114 11.2707C64.2403 11.1356 64.2832 11.0039 64.3393 10.8776L66.5199 5.96833C67.2033 4.42975 69.4785 4.7672 69.6859 6.4379L70.0308 9.21562C70.1147 9.89156 71.0083 10.0757 71.3526 9.48793V9.48793C71.6503 8.9797 72.401 9.03164 72.6259 9.57602L77.0319 20.2432C77.1547 20.5405 77.3474 20.8038 77.5936 21.0107L77.9531 21.3128C78.2047 21.5244 78.4004 21.7947 78.5227 22.0999L79.6726 24.9691C79.884 25.4966 80.5704 25.6285 80.9622 25.2168V25.2168C81.3237 24.837 81.9495 24.9147 82.2072 25.3714L83.2033 27.1376C83.928 28.4224 85.8556 28.136 86.1754 26.6959L86.6312 24.6435C86.716 24.2618 87.1925 24.1294 87.462 24.4126V24.4126C87.7459 24.7108 88.2487 24.5457 88.3006 24.1373L88.3865 23.4601C88.5039 22.535 89.8329 22.5039 89.9935 23.4225L90.913 28.6827C91.0128 29.2535 91.4361 29.7137 91.9965 29.8609V29.8609C92.5303 30.0011 92.942 30.4263 93.0649 30.9644L93.4914 32.8313C93.722 33.841 95.1032 33.9803 95.5308 33.0369L96.0331 31.9287C96.1994 31.5617 96.7149 31.546 96.9033 31.9023V31.9023C97.1185 32.3093 97.7268 32.2152 97.8089 31.7621L97.9654 30.8991C98.0945 30.187 99.0877 30.1163 99.3165 30.8028V30.8028C99.5325 31.4513 100.455 31.4363 100.65 30.7812L106.393 11.4722C106.567 10.888 107.219 10.5947 107.771 10.8526V10.8526C108.293 11.0963 108.912 10.8488 109.122 10.3127L110.156 7.67524C110.251 7.43416 110.391 7.21372 110.569 7.02616L111.131 6.4366C111.319 6.23835 111.465 6.00317 111.558 5.74588V5.74588C112.162 4.08002 114.482 3.98385 115.222 5.59399L115.516 6.23453C115.949 7.17739 117.114 7.5233 117.991 6.96997V6.96997C118.362 6.73603 118.63 6.36889 118.739 5.94393L119.673 2.29854C119.919 1.3402 120.944 0.809548 121.868 1.16262V1.16262C122.327 1.33796 122.685 1.70804 122.844 2.17282L124.207 6.15029C124.416 6.75996 125.119 7.03969 125.69 6.73998V6.73998C126.105 6.52154 126.616 6.60556 126.94 6.94579L127.339 7.36527C127.788 7.83741 128.548 7.81518 128.969 7.31756V7.31756C129.457 6.74064 130.369 6.81941 130.751 7.47148L131.571 8.8724C131.689 9.07392 131.887 9.21623 132.116 9.26426V9.26426C132.542 9.35395 132.966 9.09715 133.083 8.67712L133.144 8.46137C133.419 7.4791 134.783 7.40523 135.162 8.35205L135.649 9.5674C135.735 9.78184 135.869 9.97373 136.041 10.1283L138.397 12.2505C138.729 12.5491 139.151 12.7283 139.596 12.7595L141.532 12.895C142.003 12.9281 142.448 13.127 142.787 13.4566L146.994 17.5495C147.733 18.2682 148.897 18.3077 149.683 17.6407L153 14.8249" stroke="#3958FF" stroke-width="2" stroke-linecap="round"/>
<defs>
<linearGradient id="paint0_linear_24_4826" x1="77" y1="0.5" x2="77" y2="60.5" gradientUnits="userSpaceOnUse">
<stop stop-color="#3958FF" stop-opacity="0.53"/>
<stop offset="1" stop-color="#3958FF" stop-opacity="0"/>
</linearGradient>
</defs>
</svg>
