<svg width="44" height="44" viewBox="0 0 44 44" fill="none" xmlns="http://www.w3.org/2000/svg">
<rect x="0.5" y="0.5" width="43" height="43" rx="21.5" stroke="white" stroke-opacity="0.15"/>
<path opacity="0.3" d="M29.1907 25.3324C29.1259 25.2543 29.0622 25.1762 28.9997 25.1008C28.1403 24.0613 27.6204 23.434 27.6204 20.4914C27.6204 18.968 27.2559 17.718 26.5376 16.7805C26.0079 16.0879 25.2919 15.5625 24.3481 15.1742C24.336 15.1675 24.3251 15.1586 24.3161 15.148C23.9766 14.0113 23.0477 13.25 22.0001 13.25C20.9524 13.25 20.0239 14.0113 19.6845 15.1469C19.6754 15.157 19.6647 15.1656 19.6528 15.1723C17.4505 16.0789 16.3802 17.8184 16.3802 20.4902C16.3802 23.434 15.861 24.0613 15.0009 25.0996C14.9384 25.175 14.8747 25.2516 14.8098 25.3313C14.6423 25.5333 14.5362 25.779 14.504 26.0394C14.4718 26.2999 14.5149 26.5641 14.6282 26.8008C14.8692 27.3086 15.3829 27.6238 15.9692 27.6238H28.0352C28.6188 27.6238 29.129 27.309 29.3708 26.8035C29.4845 26.5668 29.528 26.3023 29.4961 26.0416C29.4642 25.7809 29.3582 25.5348 29.1907 25.3324ZM22.0001 30.75C22.5645 30.7495 23.1184 30.5963 23.6028 30.3066C24.0872 30.0168 24.4842 29.6014 24.7516 29.1043C24.7642 29.0805 24.7705 29.0538 24.7697 29.0269C24.7689 28.9999 24.7612 28.9736 24.7473 28.9506C24.7334 28.9275 24.7137 28.9084 24.6903 28.8952C24.6668 28.8819 24.6403 28.875 24.6134 28.875H19.3876C19.3606 28.8749 19.334 28.8818 19.3105 28.895C19.287 28.9082 19.2673 28.9273 19.2533 28.9504C19.2394 28.9735 19.2316 28.9998 19.2308 29.0268C19.2301 29.0537 19.2363 29.0804 19.2489 29.1043C19.5163 29.6013 19.9132 30.0167 20.3976 30.3065C20.8819 30.5962 21.4357 30.7495 22.0001 30.75Z" fill="#CCCCCC"/>
<path opacity="0.4" d="M15.1465 31.1465L31.1465 15.1465" stroke="#EFEFEF" stroke-linecap="round"/>
</svg>
