<svg width="77" height="77" viewBox="0 0 77 77" fill="none" xmlns="http://www.w3.org/2000/svg">
<path opacity="0.1" d="M77 38.5C77 59.763 59.763 77 38.5 77C17.237 77 0 59.763 0 38.5C0 17.237 17.237 0 38.5 0C59.763 0 77 17.237 77 38.5ZM7.7 38.5C7.7 55.5104 21.4896 69.3 38.5 69.3C55.5104 69.3 69.3 55.5104 69.3 38.5C69.3 21.4896 55.5104 7.7 38.5 7.7C21.4896 7.7 7.7 21.4896 7.7 38.5Z" fill="#3958FF"/>
<path d="M38.5 3.85C38.5 1.7237 40.228 -0.0199408 42.3437 0.192338C47.1772 0.677322 51.8874 2.07404 56.2207 4.32065C61.6962 7.15951 66.4096 11.2723 69.964 16.3128C73.5183 21.3534 75.8097 27.1741 76.6452 33.2849C77.3063 38.121 77.0404 43.0267 75.8742 47.7425C75.3637 49.8066 73.1411 50.8488 71.1382 50.1348C69.1354 49.4208 68.1161 47.2205 68.5748 45.1443C69.3572 41.603 69.5101 37.9412 69.0161 34.3279C68.3478 29.4393 66.5147 24.7827 63.6712 20.7503C60.8277 16.7179 57.057 13.4276 52.6765 11.1565C49.439 9.47798 45.9384 8.39248 42.34 7.94031C40.2303 7.67521 38.5 5.97629 38.5 3.85Z" fill="#3958FF"/>
</svg>
