<svg width="29" height="27" viewBox="0 0 29 27" fill="none" xmlns="http://www.w3.org/2000/svg">
<rect x="0.733398" width="27.6" height="27" rx="13.5" fill="#EFEFEF"/>
<g clip-path="url(#clip0_18_1465)">
<path d="M10.994 16.1174C10.9557 16.0829 10.9106 16.0559 10.8614 16.038C10.8121 16.0202 10.7597 16.0117 10.707 16.0131C10.6543 16.0145 10.6024 16.0258 10.5543 16.0463C10.5062 16.0668 10.4628 16.0962 10.4266 16.1326C10.3903 16.1691 10.362 16.212 10.3433 16.2589C10.3245 16.3058 10.3156 16.3558 10.3171 16.4059C10.3185 16.4561 10.3304 16.5055 10.3519 16.5513C10.3735 16.5971 10.4043 16.6384 10.4426 16.6729L14.0545 19.9206C14.129 19.9877 14.2277 20.025 14.3302 20.025C14.4328 20.025 14.5314 19.9877 14.6059 19.9206L18.2182 16.6729C18.2574 16.6387 18.289 16.5973 18.3113 16.5514C18.3335 16.5054 18.3459 16.4557 18.3478 16.4051C18.3497 16.3545 18.341 16.3041 18.3223 16.2567C18.3035 16.2093 18.275 16.166 18.2385 16.1292C18.202 16.0924 18.1582 16.0629 18.1096 16.0423C18.061 16.0218 18.0086 16.0106 17.9555 16.0095C17.9023 16.0084 17.8495 16.0174 17.8 16.0359C17.7505 16.0544 17.7054 16.0821 17.6672 16.1174L14.3302 19.1175L10.994 16.1174Z" fill="#171B35"/>
</g>
<g clip-path="url(#clip1_18_1465)">
<path d="M10.994 10.8824C10.9557 10.9169 10.9106 10.9438 10.8614 10.9617C10.8121 10.9796 10.7597 10.9881 10.707 10.9867C10.6543 10.9852 10.6024 10.9739 10.5543 10.9534C10.5062 10.9329 10.4628 10.9036 10.4266 10.8671C10.3903 10.8306 10.362 10.7877 10.3433 10.7408C10.3245 10.6939 10.3156 10.644 10.3171 10.5938C10.3185 10.5437 10.3304 10.4943 10.3519 10.4485C10.3735 10.4026 10.4043 10.3613 10.4426 10.3269L14.0545 7.07917C14.129 7.0121 14.2277 6.97473 14.3302 6.97473C14.4328 6.97473 14.5314 7.0121 14.6059 7.07917L18.2182 10.3269C18.2574 10.3611 18.289 10.4024 18.3113 10.4484C18.3335 10.4944 18.3459 10.5441 18.3478 10.5947C18.3497 10.6453 18.341 10.6957 18.3223 10.7431C18.3035 10.7904 18.275 10.8338 18.2385 10.8706C18.202 10.9074 18.1582 10.9369 18.1096 10.9574C18.061 10.978 18.0086 10.9891 17.9555 10.9902C17.9023 10.9913 17.8495 10.9824 17.8 10.9639C17.7505 10.9453 17.7054 10.9177 17.6672 10.8824L14.3302 7.8823L10.994 10.8824Z" fill="#171B35"/>
</g>
<defs>
<clipPath id="clip0_18_1465">
<rect width="8.43273" height="8.43273" fill="white" transform="translate(10.3169 20.0004) rotate(-90)"/>
</clipPath>
<clipPath id="clip1_18_1465">
<rect width="8.43273" height="8.43273" fill="white" transform="matrix(-4.37114e-08 1 1 4.37114e-08 10.3169 6.99951)"/>
</clipPath>
</defs>
</svg>
