<svg width="18" height="17" viewBox="0 0 18 17" fill="none" xmlns="http://www.w3.org/2000/svg">
<path d="M2.86115 5.15846C2.79352 5.09456 2.71397 5.0446 2.62704 5.01144C2.54011 4.97828 2.4475 4.96257 2.35449 4.9652C2.26148 4.96783 2.16991 4.98875 2.08499 5.02677C2.00007 5.0648 1.92347 5.11917 1.85957 5.1868C1.79566 5.25442 1.7457 5.33397 1.71254 5.42091C1.67938 5.50784 1.66367 5.60045 1.6663 5.69346C1.66893 5.78646 1.68985 5.87804 1.72788 5.96296C1.7659 6.04788 1.82027 6.12448 1.8879 6.18838L8.2629 12.2092C8.39442 12.3336 8.56854 12.4028 8.74953 12.4028C8.93051 12.4028 9.10463 12.3336 9.23615 12.2092L15.6119 6.18838C15.681 6.1249 15.7368 6.04832 15.776 5.96309C15.8153 5.87785 15.8372 5.78567 15.8406 5.69189C15.8439 5.59811 15.8285 5.50461 15.7954 5.4168C15.7623 5.329 15.7121 5.24865 15.6477 5.18042C15.5832 5.1122 15.5059 5.05745 15.4201 5.01937C15.3344 4.98128 15.2419 4.96062 15.1481 4.95858C15.0543 4.95653 14.961 4.97315 14.8736 5.00747C14.7863 5.04178 14.7067 5.09311 14.6393 5.15846L8.74952 10.7203L2.86115 5.15846Z" fill="#CCCCCC"/>
</svg>
