<svg width="76" height="110" viewBox="0 0 76 110" fill="none" xmlns="http://www.w3.org/2000/svg">
<g clip-path="url(#clip0_20_3050)">
<path fill-rule="evenodd" clip-rule="evenodd" d="M2.50305 90.3192C2.50305 90.3192 5.92825 94.8931 15.4628 94.8191C24.9974 94.745 31.1265 91.79 31.1265 91.79C31.1265 91.79 34.285 97.9794 41.1354 99.3391C47.9825 100.699 58.2186 101.231 58.2186 101.231C58.2186 101.231 55.3796 104.758 55.9296 106.299C56.4796 107.841 59.1474 108.817 59.1474 108.817C59.1474 108.817 58.7488 106.649 59.5459 105.656C60.3396 104.664 62.5363 102.661 62.5363 102.661L67.74 104.738C67.74 104.738 67.74 102.782 67.3909 101.927C67.0418 101.072 66.5576 100.881 67.0121 100.86C67.4666 100.844 71.1257 101.025 71.1257 101.025C71.1257 101.025 70.6053 99.6925 70.2661 99.2516C69.9269 98.8107 69.7095 98.5078 69.7095 98.5078C69.7095 98.5078 72.0643 96.3033 73.4838 96.3572C74.9033 96.411 75.282 96.4413 75.282 96.4413C75.282 96.4413 74.1656 94.1998 72.2751 93.9709C70.3847 93.7421 68.5568 94.2637 68.4909 94.294C68.425 94.321 66.4654 95.2297 66.4654 95.2297L64.8385 94.533L65.2831 93.4863C65.2831 93.4863 59.3054 89.5922 56.6377 86.967C53.97 84.3418 53.1763 83.3489 53.1763 83.3489C53.1763 83.3489 59.2494 77.8023 63.5804 76.8633C67.9113 75.9277 70.0322 76.5133 70.8062 77.2133C71.5802 77.91 72.4332 80.2997 72.4332 80.2997C72.4332 80.2997 74.1359 78.2432 73.9482 77.1225C73.7605 76.0017 72.2455 74.4232 72.2455 74.4232C72.2455 74.4232 73.9877 69.2973 68.2176 67.702C62.4474 66.1033 54.3685 66.6014 54.3685 66.6014L74.0832 44.7079C74.0832 44.7079 66.472 23.4605 66.4028 23.2889C66.3337 23.1206 63.4717 24.7126 62.9217 25.9511C62.3717 27.1897 61.0312 30.5351 61.0312 30.5351L59.9905 27.2099C59.9905 27.2099 56.4434 30.101 56.0844 31.9958C55.7254 33.8873 55.7452 35.0821 55.7452 35.0821L54.1182 31.979C54.1182 31.979 51.5658 35.3581 51.1475 36.8659C50.7325 38.3737 50.637 40.4301 50.637 40.4301L49.4086 38.5016C49.4086 38.5016 46.4016 44.304 46.2106 45.3709C46.0229 46.4378 44.6792 54.0779 44.6792 54.0779L42.0115 38.9997L24.8624 1.35156C24.8624 1.35156 20.5381 3.62001 20.0012 9.76233C19.4644 15.9046 20.2285 18.2101 20.2285 18.2101L14.6625 8.4026C14.6625 8.4026 10.1604 13.2323 10.1604 17.8264C10.1604 22.4172 11.9586 28.5898 11.9586 28.5898L6.56718 22.3633C6.56718 22.3633 2.40424 29.5826 3.52073 34.0085C4.63721 38.4343 8.8265 44.1559 8.8265 44.1559L1.33716 40.5311C1.33716 40.5311 -0.0164523 47.3365 1.78178 50.8637C3.58001 54.3909 9.44238 56.7401 9.44238 56.7401L0.846436 56.6492C0.846436 56.6492 1.30752 62.1756 3.55696 64.4205C5.80969 66.662 9.59058 67.5068 9.59058 67.5068L4.78542 68.4997C4.78542 68.4997 5.3519 73.8443 11.2538 75.4228C17.1557 77.0013 21.0551 74.9651 21.0551 74.9651L33.7119 69.8964C33.7119 69.8964 34.9898 74.3626 34.6571 74.3626C34.3278 74.3559 2.50305 90.3192 2.50305 90.3192Z" fill="#3A3233"/>
<path fill-rule="evenodd" clip-rule="evenodd" d="M34.5021 51.5236C34.5021 51.5236 32.6742 57.0366 32.447 59.5373C32.256 61.6475 33.2177 63.3842 33.4811 63.8116C35.3815 62.6404 37.542 61.873 39.719 62.2668C45.9798 63.4044 46.6418 64.3838 46.4442 64.6093C46.2433 64.8348 45.1202 55.0037 45.1202 55.0037L46.4739 45.7448C46.4739 45.7448 56.6803 36.8864 73.3683 44.651C73.3683 44.651 58.877 46.28 54.9414 48.5922C51.0057 50.9077 54.5066 65.7402 54.5066 65.7402L53.9961 66.6119C53.9961 66.6119 48.5652 67.3085 48.5652 67.1436C48.5652 66.9787 44.8008 60.5873 38.6519 63.1015C32.503 65.619 33.4877 70.5025 33.4877 70.5025C33.4877 70.5025 17.5968 77.005 15.074 75.7563C15.074 75.7563 19.6519 65.9657 17.9887 55.0845C16.3222 44.2 27.2861 32.1678 37.5453 34.7492C37.5453 34.7492 32.2362 34.5406 30.2107 37.0547C28.1853 39.5722 27.0325 42.8234 29.9077 46.1824C32.7829 49.5446 37.5453 48.333 37.5453 48.333C37.5453 48.333 40.1636 47.4142 40.9375 46.1453C41.7148 44.8765 42.413 43.8668 42.413 43.8668C42.413 43.8668 42.9927 47.8517 35.8689 50.938C35.4012 51.1433 34.9467 51.3352 34.5021 51.5236ZM27.7077 69.0856C27.846 66.7532 28.8077 55.034 34.5021 51.5236C28.1556 54.1993 24.1047 55.4783 24.1738 57.8477C24.2496 60.382 27.2763 69.6409 27.2763 69.6409C27.2763 69.6409 27.4311 69.4323 27.7077 69.0856ZM22.5699 93.9073C22.5699 93.9073 26.0182 90.1041 25.3166 85.8903C24.6151 81.6765 24.7502 80.0543 24.7502 80.0543C24.7502 80.0543 29.2523 84.6013 31.7488 85.7927C34.2452 86.9841 37.2555 87.7582 37.2555 87.7582C37.2555 87.7582 32.2659 83.1843 34.9006 75.2515C34.9006 75.2515 39.1854 78.9234 44.2376 77.4156C49.2898 75.9078 49.6488 70.2804 49.6488 70.2804L49.4676 67.7528C49.4676 67.7528 52.3099 70.0246 51.7204 74.5784C51.1341 79.1321 56.6408 79.9971 56.6408 79.9971L53.5383 83.7733C53.5383 83.7733 53.1761 87.0313 57.945 91.2383C62.7139 95.4454 64.4397 94.7285 64.4397 94.7285L67.002 94.9877C67.002 94.9877 69.347 96.7378 71.5635 96.5594C73.78 96.381 69.7455 98.5519 69.6269 98.4375C69.5084 98.323 67.5948 97.7408 67.035 98.6966C66.4751 99.6525 67.0152 100.541 67.0152 100.541C67.0152 100.541 64.084 99.2553 63.3825 99.1274C62.681 98.9995 59.7498 98.6394 59.7498 98.6394C59.7498 98.6394 55.9492 96.5089 54.5659 94.7824C53.1859 93.0558 45.9074 91.7869 42.0046 93.4058C38.1019 95.0213 37.183 97.8855 37.183 97.8855C37.183 97.8855 33.9916 95.3545 33.0925 93.7828C32.1934 92.211 31.7685 91.6052 31.7685 91.6052C31.7685 91.6052 24.7996 94.2741 22.5699 93.9073Z" fill="#110D0E"/>
<mask id="mask0_20_3050" style="mask-type:luminance" maskUnits="userSpaceOnUse" x="0" y="1" width="75" height="102">
<path d="M3.20136 91.0228L12.4428 87.748C12.4428 87.748 19.9289 92.0763 29.7236 85.1565C29.7236 85.1565 23.8711 87.1927 20.9004 87.2331C17.9297 87.2735 14.8273 86.0618 14.8273 86.0618L25.9625 81.0571L34.6935 76.8703C34.6935 76.8703 35.7902 76.9241 37.5127 77.1833C39.2352 77.4424 34.6869 74.3528 34.6869 74.3528L2.11451 90.0939L3.20136 91.0228ZM33.577 69.6711L36.8507 69.8461L36.9462 69.0014L33.9393 68.5874L34.127 67.7897L37.1998 68.1835C37.1998 68.1835 39.5645 65.5112 42.1005 65.878C44.6364 66.2449 45.8451 68.4864 45.7332 68.3114C45.6212 68.1364 48.4042 67.1099 48.4667 67.0796C48.5293 67.0493 48.9674 68.3013 48.9674 68.3013L45.8254 69.2302L45.967 70.0111L49.1254 69.0283L49.1419 72.4949C49.1419 72.4949 62.7274 71.1857 64.0152 72.0843C65.3029 72.9829 64.7957 75.4096 68.6623 74.6489C68.6623 74.6489 71.2806 75.1269 72.1402 75.7764C72.9998 76.4294 73.3192 77.9203 73.3192 77.9203C73.3192 77.9203 73.721 76.4394 73.1447 75.6687C72.5683 74.898 72.0941 74.346 72.0941 74.346C72.0941 74.346 73.1546 70.9265 71.1949 69.486C69.2353 68.0455 63.0173 66.706 60.9391 66.6218C58.8609 66.5377 54.4773 66.4805 54.4773 66.4805C54.4773 66.4805 52.6758 62.8557 50.4231 60.9844C48.1703 59.1097 46.0987 58.6823 46.0987 58.6823C46.0987 58.6823 50.927 61.1594 52.218 66.4064L48.8027 67.1637L46.2766 64.0202C46.2766 64.0202 42.4562 43.3383 42.6044 43.3113C42.7526 43.2878 42.5846 44.9471 40.9379 46.4347C39.2911 47.9223 36.5312 49.2786 34.8944 52.9169C33.2575 56.5552 33.2608 57.5649 33.2608 57.5649C33.2608 57.5649 34.845 53.3444 37.0219 51.7625C39.1989 50.184 41.6394 48.2185 41.6394 48.2185L43.5265 62.8422C43.5265 62.8422 40.1903 62.2465 38.0923 63.4379C36.0043 64.626 33.959 67.2411 33.577 69.6711ZM40.6678 88.1048L40.0651 88.4885C40.0651 88.4885 43.24 95.0683 52.3234 94.5904C52.3234 94.5904 54.2138 97.8046 57.7543 98.8883L56.7268 99.8778L59.872 99.4942C59.872 99.4942 61.5286 100.036 63.8439 100.538C66.1625 101.039 67.5359 102.846 67.5359 102.846C67.5359 102.846 66.0209 100.137 65.405 99.7971C64.7892 99.4571 64.5059 99.3192 64.5059 99.3192C64.5059 99.3192 66.785 98.5114 68.4515 98.9153C70.1147 99.3192 71.0369 100.622 71.0369 100.622C71.0369 100.622 69.871 98.5215 69.0937 98.1816C68.3165 97.8416 66.9826 97.5118 66.9826 97.5118C66.9826 97.5118 68.221 95.4184 70.0389 94.8866C71.8536 94.3548 74.1525 96.0612 74.1525 96.0612L74.7848 95.9972C74.7848 95.9972 73.3324 94.0452 72.1566 93.8735C70.9809 93.7019 69.5614 93.8937 69.2123 94.0586C68.8632 94.2236 67.0452 95.3275 67.0452 95.3275L64.1601 94.6746L63.4784 95.0885L65.7772 96.4011L64.1502 97.8248C64.1502 97.8248 61.0972 98.8076 60.9457 98.7874C60.7975 98.7672 59.4406 98.5922 59.1672 98.2994C58.8906 98.0065 57.7807 96.9867 57.6028 97.0002C57.4217 97.0137 61.1334 96.0242 62.2729 95.6203C63.4125 95.2164 65.3062 93.6514 65.3062 93.6514L59.9511 89.892L53.1006 83.6958V84.1266C53.1006 84.1266 54.7342 88.0913 58.8774 90.794L55.6663 92.2748L53.8911 93.224C53.8911 93.224 56.4962 93.2004 60.3529 91.6219C60.3529 91.6219 64.2128 94.2 64.1667 94.1293C64.1173 94.0586 61.1927 96.2564 60.7184 96.4584C60.2442 96.6603 57.425 97.2762 57.425 97.2762C57.425 97.2762 53.0084 92.9311 52.9129 92.6552C52.8174 92.3792 49.9719 86.2066 49.9719 86.2066V86.8629C49.9719 86.8629 49.0727 89.4376 51.1904 92.746C51.197 92.7393 45.0284 93.0691 40.6678 88.1048ZM24.1807 53.6641L24.5727 57.9418L25.5772 60.0824C25.5772 60.0824 23.8382 51.574 28.2778 44.6711C28.2778 44.6711 27.7772 39.6192 28.1691 39.7505C28.5577 39.8851 22.6493 46.4414 24.1807 53.6641ZM50.3473 60.3449H50.8413C50.8413 60.3449 58.3998 55.2863 64.0514 56.0335L65.6685 54.0444C65.6685 54.0444 60.2442 53.6809 57.2537 55.0844C54.2632 56.4879 50.3473 60.3449 50.3473 60.3449ZM46.0526 57.5548C46.0526 57.5548 52.3135 46.9025 71.083 48.3699L73.6815 45.1423C73.6815 45.1423 66.7422 23.2285 66.5808 23.2824C66.4194 23.3396 63.093 25.4869 62.5265 26.86C61.9568 28.2332 61.4166 30.956 61.4166 30.956L59.8687 26.8971C59.8687 26.8971 56.348 30.3502 55.989 31.8176C55.63 33.2884 55.574 35.2708 55.439 34.8838C55.3073 34.4967 53.9471 32.1912 53.9471 32.1912C53.9471 32.1912 51.3419 36.0247 51.0126 37.8422C50.6865 39.6596 51.1015 41.5814 50.9895 41.3525C50.8776 41.1237 49.2703 38.7408 49.2703 38.7408L47.8574 42.6248L47.7586 44.0653L49.2177 40.8174L53.3707 47.0809C53.3707 47.0809 51.0916 41.9382 51.2794 40.7635C51.4671 39.5889 51.6515 36.5228 53.7001 34.8131L58.9531 46.6534L56.4995 36.7551C56.4995 36.7551 56.7827 31.8311 59.5624 29.9564L65.3523 45.5327L66.5808 45.2028L62.8592 33.7293C62.8592 33.7293 62.0424 29.6266 65.6356 26.7591L71.8207 45.1288C71.8207 45.1288 59.9576 44.8091 53.3641 49.4806C46.7706 54.1521 45.5454 57.0903 45.5454 57.0903L46.0526 57.5548ZM5.52325 70.6674L25.2346 65.8343L9.36343 67.369C9.36343 67.369 4.80198 66.6757 3.12561 63.9192C1.45253 61.1628 1.24833 59.1972 1.24833 59.1972L24.0161 58.3861C24.0161 58.3861 12.1431 57.3865 10.3614 56.8716C8.57959 56.3566 2.19356 52.3851 1.53816 49.6421C0.879466 46.8991 1.50522 43.9374 1.50522 43.9374L23.6999 53.341L23.7394 52.1092C23.7394 52.1092 11.7644 46.327 9.55116 43.9374C7.33795 41.5477 4.34748 35.7252 5.29271 32.3461C6.23793 28.9636 7.27867 28.0649 7.27867 28.0649L24.4771 47.1684L24.9975 45.2836C24.9975 45.2836 14.1126 31.37 12.7129 26.9274C11.3132 22.4813 15.0776 16.7496 15.0776 16.7496C15.0776 16.7496 28.6236 38.4042 28.8706 38.5355C29.1176 38.6667 29.0122 39.4072 29.0122 39.4072L29.6248 37.8455L32.0587 39.2793L31.9072 39.9221L29.0781 38.2965L28.4161 39.3971L31.5383 40.8208C31.5383 40.8208 32.556 37.9398 35.3126 38.1282C38.0693 38.3201 38.728 39.7438 38.728 39.7438L39.3043 40.5885L42.1598 39.8717L42.2915 40.6087L39.2022 41.467C39.2022 41.467 39.1364 42.3488 39.2022 42.3488C39.2681 42.3488 42.6637 41.5141 42.6637 41.5141C42.6637 41.5141 42.0313 39.4005 41.5373 38.6567C41.0466 37.9128 40.4307 37.132 40.4307 37.132C40.4307 37.132 25.3796 1.25081 25.1424 1.35178C24.9086 1.45274 21.8226 3.75822 20.9004 6.05359C19.9783 8.34896 20.1792 14.498 19.9947 14.5014C19.8136 14.5014 21.21 19.22 21.21 19.22C21.21 19.22 20.6337 12.2329 23.8942 8.54754L37.3282 35.052C37.3282 35.052 35.3225 34.4462 33.5441 35.052C31.7656 35.6579 30.5141 36.7214 30.5141 36.7214L14.3432 8.60139C14.3432 8.60139 10.4404 12.62 10.2066 17.0323C9.97272 21.4447 11.715 28.5934 11.715 28.5934L6.63315 22.4376C6.63315 22.4376 2.76333 28.5126 3.52082 33.2514C4.27832 37.9903 8.63228 43.8835 8.63228 43.8835C8.63228 43.8835 1.64355 40.4236 1.59085 40.5246C1.53816 40.6256 0.000110388 46.0039 1.23516 49.3594C2.47021 52.715 6.82088 55.7239 6.82088 55.7239C6.82088 55.7239 8.78049 57.0533 8.78049 56.8918C8.78378 56.7302 0.955215 56.8581 0.958509 56.7538C0.958509 56.6494 0.918987 60.2776 3.29358 63.4312C5.66816 66.5848 10.4634 67.7493 10.4634 67.7493L4.81845 68.6951L5.52325 70.6674Z" fill="white"/>
</mask>
<g mask="url(#mask0_20_3050)">
<path d="M74.7913 1.25146H0V102.847H74.7913V1.25146Z" fill="url(#paint0_linear_20_3050)"/>
</g>
<mask id="mask1_20_3050" style="mask-type:luminance" maskUnits="userSpaceOnUse" x="31" y="38" width="9" height="8">
<path d="M35.316 45.5893C36.3864 45.5893 37.3546 45.1686 38.0561 44.4887C38.7544 43.8122 39.1891 42.8732 39.1891 41.8332C39.1891 40.7966 38.7577 39.8576 38.0561 39.1777C37.3546 38.4979 36.3864 38.0771 35.316 38.0771C34.2456 38.0771 33.2773 38.4979 32.5758 39.1777C31.8776 39.8542 31.4429 40.7932 31.4429 41.8332C31.4429 42.8698 31.8743 43.8089 32.5758 44.4887C33.274 45.1686 34.2456 45.5893 35.316 45.5893Z" fill="white"/>
</mask>
<g mask="url(#mask1_20_3050)">
<path d="M39.1858 38.0806H31.4429V45.5893H39.1858V38.0806Z" fill="url(#paint1_linear_20_3050)"/>
</g>
<mask id="mask2_20_3050" style="mask-type:luminance" maskUnits="userSpaceOnUse" x="0" y="21" width="76" height="88">
<path d="M66.6301 72.434C66.6301 72.7907 66.7784 73.1105 67.0155 73.3393C67.2559 73.5715 67.5853 73.7129 67.9508 73.7129C68.3164 73.7129 68.649 73.5682 68.8895 73.3393C68.952 73.2754 69.0113 73.2081 69.0607 73.134L69.2485 72.6864C69.2649 72.6056 69.2748 72.5215 69.2748 72.434C69.2748 72.0806 69.1266 71.7575 68.8895 71.5286C68.649 71.2964 68.3197 71.155 67.9508 71.155C67.5853 71.155 67.2526 71.2997 67.0155 71.532C66.7784 71.7575 66.6301 72.0772 66.6301 72.434ZM5.19714 70.0511C5.19714 70.0275 5.20373 69.9905 5.2169 69.94C5.29595 69.6438 5.5726 68.964 5.5726 68.964C5.5726 68.964 8.48732 76.0318 18.4006 74.3625L27.405 70.768C27.405 70.768 24.4376 61.472 24.1148 59.4728C23.7888 57.4736 24.2959 53.6671 24.2959 53.6671C24.2959 53.6671 25.7056 63.6967 29.1867 70.2362L33.0072 68.7486C33.0072 68.7486 31.9697 60.8898 32.4868 59.2069C33.0072 57.5241 33.6955 55.8379 33.6955 55.8379C33.6955 55.8379 33.1224 62.5221 34.3707 66.8941L33.9919 69.5395L34.2192 69.8693C34.2192 69.8693 35.8297 76.2001 41.8435 76.0588C47.8607 75.9174 48.7763 69.5025 48.7763 69.5025L49.1649 71.0103C49.1649 71.0103 48.5787 74.5409 46.517 76.0621C44.4552 77.5834 40.7435 78.1589 39.8773 77.7685C39.0079 77.3747 36.1096 75.6381 35.4114 74.8673C34.7132 74.0932 33.488 70.5054 33.488 70.5054L18.2524 76.0419C18.2524 76.0386 9.07685 77.8829 5.19714 70.0511ZM0.846476 58.3857L1.29768 57.1741C1.29768 57.1741 3.68215 65.7733 12.3835 65.7733L25.1358 64.4102V65.3122L9.85081 67.4663C9.8541 67.4629 1.9432 66.359 0.846476 58.3857ZM0.846476 46.0977C0.760845 46.0136 1.56445 42.7354 1.56445 42.7354C1.56445 42.7354 0.013229 54.2224 12.9928 56.0331L23.5977 56.9318V57.8876C23.5977 57.8876 8.39839 56.4067 8.39839 56.5649C8.3951 56.7265 0.839889 53.0242 0.846476 46.0977ZM4.19593 37.2999L4.3112 35.0012C4.3112 35.0012 6.99538 41.4531 12.917 45.051C18.8387 48.6523 24.0226 51.0587 24.0226 51.0587L23.6043 51.7217L10.4008 45.364C10.4008 45.364 6.1259 41.0291 4.19593 37.2999ZM11.4251 28.593L11.8499 26.4289L25.4256 43.8562L24.7834 45.4919L11.4251 28.593ZM23.4199 24.5508C23.4199 24.3287 22.5142 21.4443 22.5142 21.4443L31.6173 35.9166L30.2472 36.6537L23.4199 24.5508ZM28.1691 40.9012L28.9266 40.4468C28.9266 40.4468 29.7763 47.1276 35.4904 47.2589C41.2046 47.3868 42.1498 41.3084 42.1498 41.3084C42.1498 41.3084 42.6702 44.4284 40.8588 46.2727C39.0474 48.1138 36.0569 48.9316 36.0569 48.9316C36.0569 48.9316 28.1691 48.7229 28.1691 40.9012ZM14.6593 86.223C14.5736 86.1389 13.9314 85.1662 13.9314 85.1662C13.9314 85.1662 19.4348 87.7275 28.4391 84.1262L29.3086 84.5671C29.3086 84.5671 26.3577 87.0106 22.7052 87.1755C19.0593 87.3438 15.5781 87.1587 14.6593 86.223ZM53.8515 65.3392L64.2589 54.044C64.2589 54.044 61.6471 54.0037 60.0597 54.5018C58.4689 54.9999 56.1997 56.0264 56.0482 56.1173C55.8967 56.2081 50.0904 59.594 50.0904 59.594C50.0904 59.594 55.4225 52.2973 65.5268 52.7382L71.488 45.539H73.6814L54.6815 66.2445C54.6815 66.2445 53.9305 66.2445 53.8515 65.3392ZM46.7969 54.2998C46.7969 54.2998 46.2765 51.4424 46.3358 47.4575L50.288 50.7188L47.2514 45.778L49.0859 39.5515L49.7676 38.8885L54.4608 48.3864C54.4608 48.3864 55.4093 48.2046 55.35 48.0734C55.2907 47.9421 51.9248 42.7927 51.5461 40.4468C51.1673 38.1009 51.2991 37.2932 51.2991 37.2932C51.2991 37.2932 51.0059 40.3559 50.8413 40.0497C50.6733 39.7434 49.211 38.313 49.211 38.313C49.211 38.313 46.4577 45.4818 45.5586 49.009C44.6594 52.5362 45.7496 57.0698 45.5586 57.0933C45.3675 57.1135 46.7969 54.2998 46.7969 54.2998ZM2.65788 90.5008L3.2013 90.2484C3.2013 90.2484 14.7021 97.1749 31.1826 90.2484L34.7659 86.9938C34.7659 86.9938 29.6939 84.6816 28.6697 83.6449C27.6454 82.6083 25.7154 79.5927 25.7154 79.5927C25.7154 79.5927 35.3291 89.7334 49.5931 84.9205L53.6605 80.9726C53.6605 80.9726 46.6783 81.7433 44.363 80.4779C42.0444 79.209 40.727 78.2565 40.727 78.2565C40.727 78.2565 48.6379 81.9655 58.3998 77.9065C58.3998 77.9065 63.7385 74.2716 68.6754 75.3722L69.7886 74.3625C69.7886 74.3625 69.8577 75.4529 70.7272 76.0958C71.5967 76.7386 72.4102 77.6574 72.7889 78.5191C72.7889 78.5191 73.4707 77.7214 73.4806 77.0584C73.4904 76.3987 74.1755 77.8762 73.7737 78.5931C73.3719 79.31 72.6012 80.0538 72.6012 79.9629C72.6012 79.872 71.0203 76.6713 67.8421 76.3852C64.6639 76.0991 59.1639 78.5325 56.5521 80.6058C53.9437 82.6756 50.4922 86.3307 50.4922 86.3307L42.7558 88.1314L41.4878 88.4948C41.4878 88.4948 46.3391 92.4158 51.8392 91.7663C57.336 91.1167 59.6151 89.3598 59.6151 89.3598C59.6151 89.3598 60.2803 90.4638 60.3989 90.3157C60.5175 90.1642 55.9297 92.3923 54.7539 92.5202C53.5814 92.6481 51.253 93.0721 50.6107 92.9409C49.9685 92.813 44.5014 91.7831 42.5516 90.2584C40.6019 88.7338 40.3746 88.0169 40.3746 88.0169C40.3746 88.0169 36.1228 87.6635 36.1557 87.5558C36.1886 87.4515 32.3715 91.083 32.3715 91.083C32.3715 91.083 38.8596 102.769 57.4315 97.8177L57.3031 96.4714C57.3031 96.4714 62.151 94.8492 64.7035 92.9207L65.4478 93.6477C65.4478 93.6477 62.3947 95.7276 60.883 96.2998C59.3681 96.8686 58.0013 97.121 57.8926 97.2725C57.7872 97.4239 59.2561 98.5952 59.2561 98.5952L55.6431 99.7327L59.7666 100.349L59.3252 100.773L56.5456 103.765L57.6159 103.203C57.6159 103.203 56.562 105.118 58.0046 107.023C58.0046 107.023 57.7411 103.183 62.7142 101.328L66.64 102.927C66.64 102.927 66.9331 101.372 66.4227 100.951C65.9122 100.53 66.0834 100.133 66.0834 100.133C66.0834 100.133 67.661 99.1168 70.1871 99.4568L68.3987 97.7571C68.3987 97.7571 71.4715 94.4891 74.2842 95.2329L75.2755 96.3435C75.2755 96.3435 72.509 96.3738 71.4386 97.1547C70.3682 97.9355 69.9368 98.5884 69.9038 98.474C69.8709 98.3596 71.2937 101.119 71.2937 101.119C71.2937 101.119 68.3428 100.641 67.9541 100.779C67.5655 100.917 67.3382 101.035 67.3382 101.035L67.7335 104.734L62.4211 102.658C62.4211 102.658 58.8082 105.333 58.8642 106.545C58.9201 107.756 59.3351 108.709 59.2363 108.726C59.1342 108.739 56.5126 108.308 56.0515 106.572C55.5905 104.832 58.357 101.092 58.357 101.092L45.2259 100.534C45.2259 100.534 37.5752 99.3322 35.2171 96.3503C32.859 93.3683 31.3934 91.736 31.3934 91.736C31.3934 91.736 11.5898 99.5847 2.65788 90.5008Z" fill="white"/>
</mask>
<g mask="url(#mask2_20_3050)">
<path d="M75.2789 21.4443H0.0166016V108.743H75.2789V21.4443Z" fill="url(#paint2_linear_20_3050)"/>
</g>
<path fill-rule="evenodd" clip-rule="evenodd" d="M35.3159 44.2397C36.001 44.2397 36.6234 43.9705 37.0713 43.5363C37.5192 43.1022 37.7959 42.4997 37.7959 41.8367C37.7959 41.1703 37.5192 40.5712 37.0713 40.137C36.6234 39.7028 36.001 39.4336 35.3159 39.4336C34.6309 39.4336 34.0084 39.7028 33.5605 40.137C33.1126 40.5712 32.8359 41.1736 32.8359 41.8367C32.8359 42.4997 33.1126 43.1022 33.5605 43.5363C34.0084 43.9705 34.6309 44.2397 35.3159 44.2397Z" fill="#61C4DB"/>
<path d="M65.7178 97.2457C66.1723 97.212 66.6367 97.2086 67.1143 97.2389C68.043 97.2995 68.8104 97.5351 69.4427 97.8717C70.691 96.973 71.9063 96.273 73.0129 96.0071C73.5299 95.8826 74.0207 95.8489 74.4785 95.923C73.8527 95.1455 72.868 94.3613 71.3925 94.2401C70.2299 94.1459 69.1365 94.5397 68.1912 95.1186C67.1703 95.7345 66.3205 96.5591 65.7178 97.2457ZM63.4684 98.74C65.1415 99.0799 66.2679 99.6959 67.0188 100.419C68.0661 100.076 68.9981 100.009 69.8248 100.197C70.1014 100.261 70.3649 100.352 70.6152 100.47C70.0356 99.4737 68.9685 98.4001 67.0451 98.2756C66.1262 98.2183 65.2535 98.3025 64.4433 98.4809C64.1073 98.5515 63.7846 98.639 63.4684 98.74ZM23.3046 51.429C23.4462 49.5174 23.7789 47.5888 24.3717 45.6973L6.80434 23.235C-1.96287 38.0573 12.8643 45.8791 12.9071 45.8993L23.3046 51.429ZM23.4396 57.4771C23.2651 55.8919 23.1827 54.2528 23.242 52.5936C22.8402 52.3984 22.445 52.1964 22.0564 51.9911C21.5689 51.732 21.1046 51.4694 20.6599 51.2035L12.3868 46.8046L12.3736 46.7979L1.86414 41.2109C-1.20208 54.5187 10.078 56.5583 13.4209 56.8713L23.4396 57.4771ZM24.9316 64.8311C24.3816 62.9396 23.8842 60.8024 23.5681 58.5306L14.2706 57.9651C14.1784 57.9618 13.8721 57.955 13.411 57.9147L1.30096 57.1776C1.46892 59.3854 2.7402 67.389 12.4362 66.8202L24.9316 64.8311ZM27.6026 71.9393C27.102 70.8825 26.1337 68.6982 25.2379 65.834L5.57258 68.9607C6.05672 70.8522 8.49059 77.3008 18.8288 75.0929L27.6026 71.9393ZM66.9562 45.0545C69.7754 44.7179 72.0545 44.654 73.1775 44.6473L66.1625 24.3019C64.6903 25.0188 60.6558 27.6103 62.8591 33.7291C63.4882 35.4826 64.1633 37.3606 64.8088 39.1511C65.6915 41.598 66.4852 43.789 66.9562 45.0545ZM59.9806 46.3637C62.0226 45.8219 64.0349 45.4516 65.8726 45.1959C65.3984 43.9135 64.6409 41.8235 63.801 39.4944C63.1819 37.778 62.5001 35.8797 61.8513 34.0724L61.8381 34.0387C60.9917 31.676 60.2046 29.4715 59.6974 28.0512C58.3932 29.0643 55.3302 32.0261 56.4994 36.7582L59.9806 46.3637ZM54.7308 48.1846C56.1042 47.5754 57.527 47.0705 58.9531 46.6498L56.2722 39.2521C55.9033 38.4679 55.6365 37.7174 55.4587 37.0039L54.0129 33.0223L53.9997 33.0358C53.7889 33.2646 53.5847 33.4868 53.3937 33.7055L53.3904 33.7022C52.0203 35.4456 50.1892 38.8213 52.1422 42.8567L54.7308 48.1846ZM50.288 50.7189C51.3682 49.9246 52.5407 49.2346 53.7626 48.6356L51.1805 43.3077L51.1772 43.301L49.3329 39.4944C48.2592 41.4701 47.3535 43.6578 46.7145 46.0743L50.288 50.7189ZM45.7265 55.7674C46.6783 54.0475 47.9562 52.5936 49.4514 51.3651L46.3984 47.397C46.3786 47.4912 46.3589 47.5855 46.3391 47.6797C45.8286 50.1535 45.5948 52.846 45.7265 55.7674ZM57.4611 96.5826C60.748 96.1855 63.5936 94.4421 64.8121 93.5906C63.2873 92.7559 61.7887 91.8068 60.3923 90.8139C58.0276 92.0996 55.8605 92.8468 53.8943 93.217C54.7835 94.3748 55.9461 95.5359 57.4611 96.5826ZM59.8489 97.9794C59.918 98.0097 60.3758 98.1948 61.4759 98.4169C62.2696 98.0366 63.1753 97.6967 64.1633 97.4745C64.5091 97.0134 65.1053 96.2831 65.8924 95.5561C65.7969 95.5393 65.7014 95.5191 65.6059 95.4989C65.2205 95.4114 64.822 95.2768 64.4334 95.0816C63.0995 95.896 61.0839 96.9226 58.7785 97.4139C59.1243 97.6092 59.48 97.7976 59.8489 97.9794ZM70.2035 76.4123L70.2101 76.419C71.1949 77.0484 71.814 77.6879 72.1994 78.2735L72.2883 78.4115C72.4793 78.7245 72.6012 79.0173 72.6802 79.2832C74.3994 77.0854 72.3476 75.2208 71.9622 74.9045L69.861 74.0597C69.3966 75.655 70.2035 76.4089 70.2035 76.4123ZM28.7783 84.4562C26.5487 82.696 25.251 80.8516 24.7471 80.0506L13.9347 85.1697C15.0018 85.8832 16.576 86.6035 18.7234 86.7953C21.2495 87.0242 24.5627 86.5261 28.7783 84.4562ZM34.8877 87.6502C32.8425 87.0309 31.1299 86.1289 29.7236 85.1529C25.0831 87.5156 21.4207 88.0776 18.6279 87.8286C15.9174 87.5829 14.0236 86.5732 12.8478 85.6813L3.20129 90.2485C5.34204 92.0558 14.0203 97.8717 31.1233 91.1707L34.8877 87.6502ZM40.065 88.4882C38.6291 88.4411 37.3051 88.256 36.0865 87.9733L32.0883 91.7125C36.1755 98.666 43.1807 100.164 49.0793 99.9584V99.9516L49.1781 99.955C53.1566 99.8036 56.618 98.8847 58.3207 98.353C55.7485 96.9024 53.9602 95.132 52.7185 93.3954C45.2457 94.257 40.9411 89.5585 40.065 88.4882ZM49.9751 86.8559C46.8199 87.9262 43.9974 88.4142 41.4845 88.4882C42.9172 89.959 46.4741 92.8434 52.0598 92.4059C50.6305 90.0634 50.1398 87.9093 49.9751 86.8559ZM53.173 84.1196C52.0697 85.1596 51.2925 85.9876 50.9829 86.3241C51.0619 87.0477 51.444 89.5551 53.2224 92.2712C55.0964 91.9818 57.1746 91.3188 59.457 90.1307C58.9597 89.7571 58.4788 89.3801 58.0144 89.0032C55.9099 87.2867 54.1874 85.55 53.173 84.1196ZM50.8347 60.3379C51.0191 60.5028 51.2002 60.6745 51.3781 60.8495C52.7581 62.2227 53.8383 63.8887 54.5102 65.7364L64.7133 54.512C61.2782 54.4144 58.3833 55.2861 56.0614 56.4742C53.7428 57.6589 51.9907 59.1566 50.8347 60.3379ZM46.0526 57.5545C47.4984 58.0459 48.8355 58.7662 50.0179 59.6682C51.2365 58.4195 53.0973 56.8175 55.5608 55.5587C58.2252 54.1956 61.5911 53.2297 65.619 53.5191L72.7362 45.6906C68.0266 45.768 50.5218 46.7945 46.0526 57.5545ZM68.8894 71.5287C68.649 71.2965 68.3197 71.1551 67.9508 71.1551C67.5852 71.1551 67.2526 71.2999 67.0155 71.5321C66.7783 71.7609 66.6301 72.084 66.6301 72.4374C66.6301 72.7942 66.7783 73.1139 67.0155 73.3428C67.2559 73.575 67.5852 73.7164 67.9508 73.7164C68.3164 73.7164 68.649 73.5717 68.8894 73.3428C68.952 73.2789 69.0113 73.2115 69.0607 73.1375L69.2484 72.6899C69.2649 72.6091 69.2748 72.5249 69.2748 72.4374C69.2748 72.0773 69.1266 71.7576 68.8894 71.5287ZM39.9761 37.3371C38.7872 36.186 37.147 35.4725 35.3323 35.4725C33.5637 35.4725 31.9598 36.149 30.7808 37.2496C30.6918 37.3371 30.6029 37.4246 30.514 37.5121C29.4304 38.6463 28.7652 40.1676 28.7652 41.8403C28.7652 43.6005 29.4996 45.1891 30.6853 46.3402C31.8742 47.4912 33.5143 48.2048 35.329 48.2048C36.6234 48.2048 37.8288 47.8446 38.8432 47.2186L38.965 47.1378L38.9683 47.1345L39.1132 47.0402C39.4195 46.8316 39.7093 46.596 39.9728 46.3368C41.1585 45.1858 41.8929 43.5938 41.8929 41.8369C41.8995 40.0801 41.1651 38.4881 39.9761 37.3371ZM29.7302 36.8053L29.7499 36.7817L14.5835 9.24733C11.9059 12.0913 10.8257 15.2483 10.605 18.2404C10.2098 23.6624 12.6173 28.5561 13.5428 30.1379L24.7801 44.5059C25.7978 41.7865 27.3852 39.1646 29.7302 36.8053ZM36.4093 49.1707C36.0569 49.2178 35.6979 49.2447 35.3323 49.2447C33.2245 49.2447 31.3143 48.4168 29.9343 47.0739C28.5511 45.731 27.6948 43.8799 27.6948 41.8369C27.6948 41.5307 27.7145 41.2311 27.7508 40.9349C24.2169 46.4311 23.8612 52.8258 24.6286 58.3892C25.4948 64.646 27.7837 69.8526 28.6071 71.5758L33.05 69.9805C32.4011 67.8029 29.3679 56.1712 36.4093 49.1707ZM35.3323 34.4325C36.8967 34.4325 38.3557 34.8902 39.5677 35.6744L24.734 2.00781C21.6612 4.12481 20.5348 7.40295 20.2878 10.597C20.0243 13.9963 20.7522 17.3114 21.2132 19.0818L30.5634 36.0547C31.8709 35.0383 33.5275 34.4325 35.3323 34.4325ZM37.7893 39.4608C37.1602 38.8516 36.294 38.4747 35.3323 38.4747C34.3739 38.4747 33.5045 38.8516 32.8754 39.4608C32.2496 40.07 31.861 40.908 31.861 41.8403C31.861 42.7692 32.2496 43.6106 32.8754 44.2198C33.5045 44.829 34.3706 45.206 35.3323 45.206C36.2907 45.206 37.1602 44.829 37.7893 44.2198C38.415 43.614 38.8036 42.7726 38.8036 41.8403C38.8036 40.908 38.415 40.0666 37.7893 39.4608ZM35.3323 37.4313C36.5839 37.4313 37.7201 37.926 38.5435 38.7203C39.3668 39.518 39.8773 40.6219 39.8773 41.8369C39.8773 43.0519 39.3668 44.1525 38.5435 44.9535C37.7201 45.7512 36.5871 46.2426 35.3323 46.2426C34.0808 46.2426 32.9446 45.7478 32.1212 44.9535C31.2978 44.1559 30.7874 43.0519 30.7874 41.8369C30.7874 40.6219 31.2978 39.5214 32.1212 38.7203C32.9446 37.926 34.0808 37.4313 35.3323 37.4313ZM44.2346 67.5303C43.5331 66.8505 42.5648 66.4298 41.4944 66.4298C40.424 66.4298 39.4557 66.8505 38.7542 67.5303C38.056 68.2068 37.6213 69.1458 37.6213 70.1858C37.6213 71.2224 38.0527 72.1615 38.7542 72.8413C39.4557 73.5212 40.424 73.9419 41.4944 73.9419C42.5648 73.9419 43.5331 73.5212 44.2346 72.8413C44.9328 72.1648 45.3675 71.2258 45.3675 70.1858C45.3642 69.1458 44.9328 68.2068 44.2346 67.5303ZM41.4944 65.3898C42.8579 65.3898 44.0929 65.9283 44.9888 66.7932C45.8846 67.6616 46.4379 68.8598 46.4379 70.1858C46.4379 71.5085 45.8846 72.7067 44.9888 73.575C44.0929 74.4434 42.8579 74.9785 41.4944 74.9785C40.1309 74.9785 38.8959 74.44 38 73.575C37.1042 72.7067 36.5509 71.5085 36.5509 70.1858C36.5509 68.8631 37.1042 67.6649 38 66.7932C38.8926 65.9249 40.1276 65.3898 41.4944 65.3898ZM46.6454 65.1912C45.328 63.9122 43.5067 63.1247 41.4944 63.1247C39.4821 63.1247 37.6608 63.9156 36.3434 65.1912C35.026 66.4668 34.2126 68.2337 34.2126 70.1858C34.2126 72.1379 35.026 73.9015 36.3434 75.1804C37.6608 76.4594 39.4821 77.2503 41.4944 77.2503C43.5067 77.2503 45.328 76.4594 46.6454 75.1804C47.9628 73.9049 48.7763 72.1379 48.7763 70.1858C48.7763 68.2337 47.9628 66.4668 46.6454 65.1912ZM34.3278 74.3559C33.7152 73.3697 33.3134 72.2456 33.1817 71.0441L19.168 76.0791L19.0988 76.0959C5.88546 78.9466 4.40669 68.6444 4.4034 68.6174L4.31448 68.1159L4.84802 68.0251L8.09867 67.5068C0.158125 65.548 0.207527 56.6626 0.207527 56.6323L0.230581 56.0804L0.774003 56.1039L7.63429 56.5213C3.11566 54.6399 -1.60059 50.3015 0.984785 40.3056L1.21203 39.6964L1.76204 39.9757L7.62441 43.0923C3.78752 39.1276 -0.00984183 32.0362 6.29056 22.0334L6.70883 21.468L7.17321 21.9897L10.7861 26.6107C9.97594 24.2985 9.30737 21.3166 9.53791 18.1629C9.78492 14.7737 11.0694 11.1826 14.3266 8.0054L14.8206 7.5645L15.1796 8.12993L19.4644 15.908C19.2207 14.2992 19.0725 12.4279 19.2207 10.5229C19.5006 6.88801 20.851 3.13867 24.6352 0.823103L25.2346 0.5L25.4651 1.02504L41.5537 37.5424C42.2223 38.4477 42.6833 39.5079 42.8711 40.6522L44.7483 51.1329C44.8603 49.864 45.0415 48.649 45.2819 47.4778C46.0163 43.9135 47.3074 40.797 48.9014 38.091L49.3658 37.3034L49.8499 38.128L50.2254 38.9055C50.3407 36.3543 51.579 34.2945 52.5802 33.0324L52.5901 33.0223C53.2817 32.1472 53.8581 31.6592 53.8647 31.6525L54.4344 31.1476L54.7275 31.8679L55.2578 33.3319C55.9297 29.0441 59.6645 26.7857 59.6776 26.7756L60.2474 26.3886L60.4681 27.0449L61.219 29.1417C61.6768 26.0621 63.9427 23.8711 66.8212 22.9388L66.9891 23.4302L74.3072 44.6574L74.5213 45.2901L74.3171 45.5122L55.5279 66.1841C59.7534 65.9889 64.2588 66.1504 67.6116 67.1264C69.0607 67.5471 70.3056 68.126 71.241 68.8934C72.2126 69.6944 72.8482 70.694 73.0227 71.9326C73.1248 72.6427 73.0721 73.4236 72.8416 74.2818C75.506 76.732 74.7288 79.0913 72.1599 81.2353C71.9359 80.1784 71.9524 78.7312 69.5218 77.2234C65.8232 75.6988 62.5989 77.6037 59.5097 79.1856C57.4018 80.4645 55.462 82.0396 53.9569 83.396C54.8955 84.7658 56.5916 86.4857 58.7028 88.2055C60.8567 89.9624 63.4256 91.7024 66.0406 93.0588L66.7388 93.4223L66.1295 93.917C66.1262 93.9204 65.9023 94.1021 65.4939 94.3882C65.6124 94.4252 65.731 94.4589 65.8496 94.4858C66.3074 94.5902 66.7421 94.6137 67.0912 94.5801C67.2592 94.4623 67.4337 94.3445 67.6149 94.2368C68.7379 93.5502 70.052 93.0857 71.4748 93.2001C74.2677 93.429 76 95.4349 76 97.5115C74.9626 96.8384 74.6497 96.6769 73.2632 97.0101C72.3904 97.2187 71.3991 97.7741 70.3583 98.4977C71.8865 99.817 72.2455 100.753 71.9194 102.711C71.2443 101.904 70.7041 101.459 69.5811 101.204C69.0409 101.083 68.4251 101.106 67.7269 101.288C67.8849 101.544 68.0101 101.806 68.1089 102.065V102.069C68.5535 103.247 68.57 104.862 67.8059 105.912L67.2921 105.424C66.9265 105.094 66.3238 104.738 65.6026 104.377C64.7496 103.953 63.7352 103.533 62.7373 103.152C61.9238 103.617 61.2223 104.223 60.692 104.879C60.2243 105.458 59.895 106.067 59.7501 106.643C59.401 108.012 60.1288 108.938 60.6261 109.5L59.9444 109.476C59.9213 109.476 51.6152 109.473 57.3985 101.554C55.6629 101.399 51.8886 101.083 49.1352 100.992C42.9435 101.214 35.5398 99.642 31.1859 92.2679C10.7993 100.113 1.91354 90.4908 1.88719 90.4639L1.39647 89.9489L2.04528 89.6427L34.3278 74.3559ZM37.7794 77.4455C36.9626 77.0518 36.2249 76.5334 35.5859 75.9142C35.3587 75.6954 35.1479 75.4632 34.947 75.2208L25.7121 79.5928C27.1316 81.8108 34.3048 91.3188 50.1167 85.7048C50.558 85.2202 52.5572 83.0695 55.3072 80.8852C45.2918 83.847 38.4908 78.0816 37.7794 77.4455ZM49.7149 71.633C49.4053 73.289 48.5786 74.7732 47.3996 75.9175C45.8879 77.385 43.7998 78.2903 41.4944 78.2903C41.2342 78.2903 40.9773 78.2802 40.727 78.2567C44.0732 80.2155 50.8874 82.706 59.6019 77.9571C59.7204 77.8898 59.8423 77.8225 59.9642 77.7552C62.5133 76.3248 65.8199 75.204 68.7742 75.8973C68.682 75.5507 68.6293 75.1367 68.6688 74.6554C68.4415 74.7227 68.2044 74.7597 67.9541 74.7597C67.2954 74.7597 66.696 74.5006 66.2613 74.0799C65.8265 73.6592 65.5565 73.0769 65.5565 72.4374C65.5565 72.3365 65.563 72.2389 65.5762 72.1413C65.54 71.31 64.137 71.0508 63.4783 71.0205C60.4746 70.8926 55.9527 70.7008 49.7149 71.633ZM49.4646 67.7457C49.7149 68.5165 49.8499 69.3343 49.8499 70.1858C49.8499 70.3137 49.8466 70.4382 49.84 70.5628C52.2805 70.2094 67.7664 68.9708 69.6437 70.7916C70.0784 71.2123 70.3484 71.7946 70.3484 72.4341C70.3484 72.6629 70.3155 72.8817 70.2496 73.0904L71.8733 73.7433C72.0084 73.1274 72.0347 72.5721 71.9622 72.0706C71.8272 71.108 71.3233 70.3204 70.5494 69.6843C69.7359 69.0146 68.6194 68.503 67.3053 68.1227C62.3618 66.6822 54.7506 67.0861 49.4646 67.7457ZM47.09 64.168C47.1954 64.2623 47.3008 64.3565 47.3996 64.4541C48.0813 65.1171 48.6478 65.8913 49.0628 66.7495C50.4329 66.5745 51.9643 66.4129 53.5781 66.2985C52.9655 64.508 51.9413 62.8958 50.6107 61.5731C49.3526 60.3211 47.8212 59.3249 46.1053 58.682L47.09 64.168ZM41.4944 62.0813C43.0851 62.0813 44.5738 62.5121 45.8418 63.2627C44.722 57.0194 43.6055 50.7795 42.4726 44.4756C42.0839 45.4584 41.4878 46.3435 40.7336 47.0739C40.3318 47.4643 39.8839 47.811 39.3998 48.1071C31.5811 53.1859 32.5955 63.0843 33.5637 67.6347C33.9787 66.423 34.6802 65.3359 35.5892 64.4541C37.0976 62.9901 39.1857 62.0813 41.4944 62.0813ZM66.0867 103.455C66.5445 103.684 66.9661 103.913 67.3218 104.145C67.3382 103.984 67.3448 103.802 67.3382 103.607C67.3251 103.247 67.2592 102.839 67.1044 102.425C65.9846 99.4535 62.1642 99.8944 59.6315 99.0093C59.065 99.2112 57.2964 99.8103 54.8593 100.298C56.371 100.416 57.8399 100.494 59.3252 100.773C57.7575 102.809 54.3751 107.211 58.7851 108.285C58.5546 107.709 58.5447 107.063 58.7126 106.397C58.8971 105.677 59.2923 104.929 59.8522 104.239C60.524 103.408 61.7229 102.382 62.7438 102.001C63.3959 102.338 65.2106 103.021 66.0867 103.455Z" fill="#070606"/>
<path fill-rule="evenodd" clip-rule="evenodd" d="M35.316 42.8905C35.6157 42.8905 35.889 42.7727 36.0866 42.5808C36.2842 42.389 36.4061 42.1265 36.4061 41.8337C36.4061 41.5409 36.2842 41.2783 36.0866 41.0865C35.889 40.8947 35.619 40.7769 35.316 40.7769C35.0163 40.7769 34.7429 40.8947 34.5453 41.0865C34.3477 41.2783 34.2258 41.5409 34.2258 41.8337C34.2258 42.1265 34.3477 42.389 34.5453 42.5808C34.7429 42.7727 35.013 42.8905 35.316 42.8905Z" fill="#B0E1DD"/>
<mask id="mask3_20_3050" style="mask-type:luminance" maskUnits="userSpaceOnUse" x="37" y="66" width="9" height="8">
<path d="M41.4945 73.9389C42.5648 73.9389 43.5331 73.5182 44.2346 72.8383C44.9328 72.1618 45.3676 71.2228 45.3676 70.1828C45.3676 69.1462 44.9361 68.2072 44.2346 67.5273C43.5331 66.8475 42.5648 66.4268 41.4945 66.4268C40.4241 66.4268 39.4558 66.8475 38.7543 67.5273C38.0561 68.2038 37.6213 69.1428 37.6213 70.1828C37.6213 71.2194 38.0528 72.1585 38.7543 72.8383C39.4525 73.5182 40.4208 73.9389 41.4945 73.9389Z" fill="white"/>
</mask>
<g mask="url(#mask3_20_3050)">
<path d="M45.3643 66.4297H37.6213V73.9385H45.3643V66.4297Z" fill="url(#paint3_linear_20_3050)"/>
</g>
<path fill-rule="evenodd" clip-rule="evenodd" d="M41.4944 72.5894C42.1794 72.5894 42.8019 72.3201 43.2498 71.8859C43.6977 71.4518 43.9744 70.8493 43.9744 70.1863C43.9744 69.5232 43.6977 68.9208 43.2498 68.4866C42.8019 68.0525 42.1794 67.7832 41.4944 67.7832C40.8093 67.7832 40.1869 68.0525 39.739 68.4866C39.2911 68.9208 39.0144 69.5232 39.0144 70.1863C39.0144 70.8527 39.2911 71.4518 39.739 71.8859C40.1869 72.3201 40.8061 72.5894 41.4944 72.5894Z" fill="#61C4DB"/>
<path fill-rule="evenodd" clip-rule="evenodd" d="M41.491 71.2391C41.7907 71.2391 42.0641 71.1213 42.2617 70.9295C42.4593 70.7376 42.5812 70.4751 42.5812 70.1823C42.5812 69.8895 42.4593 69.627 42.2617 69.4351C42.0641 69.2433 41.794 69.1255 41.491 69.1255C41.1913 69.1255 40.918 69.2433 40.7203 69.4351C40.5227 69.627 40.4009 69.8895 40.4009 70.1823C40.4009 70.4751 40.5227 70.7376 40.7203 70.9295C40.9212 71.1213 41.1913 71.2391 41.491 71.2391Z" fill="#B0E1DD"/>
<path fill-rule="evenodd" clip-rule="evenodd" d="M67.45 71.9628C67.3216 72.0873 67.2393 72.2623 67.2393 72.4575C67.2393 72.6494 67.3183 72.8244 67.45 72.9523C67.5818 73.0768 67.7596 73.1576 67.9605 73.1576C68.1614 73.1576 68.3393 73.0802 68.471 72.9523C68.5072 72.9186 68.5369 72.8816 68.5632 72.8412L68.6653 72.5989C68.6752 72.5551 68.6785 72.508 68.6785 72.4609C68.6785 72.2691 68.5995 72.094 68.4677 71.9661C68.336 71.8416 68.1581 71.7608 67.9572 71.7608C67.7596 71.7575 67.5785 71.8383 67.45 71.9628Z" fill="#B0E1DD"/>
</g>
<defs>
<linearGradient id="paint0_linear_20_3050" x1="46.5774" y1="94.8868" x2="30.5784" y2="23.4114" gradientUnits="userSpaceOnUse">
<stop stop-color="#9B3604"/>
<stop offset="1" stop-color="#FDAD50"/>
</linearGradient>
<linearGradient id="paint1_linear_20_3050" x1="34.5237" y1="45.444" x2="36.4139" y2="37.1944" gradientUnits="userSpaceOnUse">
<stop stop-color="#61C4DB"/>
<stop offset="1" stop-color="#10107A"/>
</linearGradient>
<linearGradient id="paint2_linear_20_3050" x1="42.165" y1="61.7291" x2="14.4031" y2="81.5244" gradientUnits="userSpaceOnUse">
<stop stop-color="#53459D"/>
<stop offset="1" stop-color="#61C4DB"/>
</linearGradient>
<linearGradient id="paint3_linear_20_3050" x1="40.701" y1="73.7944" x2="42.5912" y2="65.5448" gradientUnits="userSpaceOnUse">
<stop stop-color="#61C4DB"/>
<stop offset="1" stop-color="#10107A"/>
</linearGradient>
<clipPath id="clip0_20_3050">
<rect width="76" height="109" fill="white" transform="translate(0 0.5)"/>
</clipPath>
</defs>
</svg>
